<mxfile host="app.diagrams.net" modified="2022-12-02T03:01:33.743Z" agent="5.0 (Windows NT 10.0; Win64; x64) AppleWebKit/537.36 (KHTML, like Gecko) Chrome/109.0.0.0 Safari/537.36" version="20.6.0" etag="aCtgx1nckhB7mWWiIQyC" type="github">
  <diagram id="FcpsvITDXoBK0SUQtS_H" name="ページ1">
    <mxGraphModel dx="1092" dy="654" grid="1" gridSize="10" guides="1" tooltips="1" connect="1" arrows="1" fold="1" page="1" pageScale="1" pageWidth="1169" pageHeight="827" math="0" shadow="0">
      <root>
        <mxCell id="0" />
        <mxCell id="1" parent="0" />
        <mxCell id="KtZiofN9k-Ag25ZW_gEH-1" value="協力会社の案" style="shape=table;childLayout=tableLayout;startSize=40;collapsible=0;recursiveResize=0;expand=0;fontStyle=1;" vertex="1" parent="1">
          <mxGeometry x="50" y="140" width="947" height="400" as="geometry" />
        </mxCell>
        <mxCell id="KtZiofN9k-Ag25ZW_gEH-2" value="" style="shape=tableRow;horizontal=0;startSize=40;swimlaneHead=0;swimlaneBody=0;top=0;left=0;bottom=0;right=0;dropTarget=0;fillColor=none;collapsible=0;recursiveResize=0;expand=0;fontStyle=1;" vertex="1" parent="KtZiofN9k-Ag25ZW_gEH-1">
          <mxGeometry y="40" width="947" height="120" as="geometry" />
        </mxCell>
        <mxCell id="KtZiofN9k-Ag25ZW_gEH-3" value="ジャンル、特徴" style="swimlane;swimlaneHead=0;swimlaneBody=0;fontStyle=0;connectable=0;fillColor=none;startSize=40;collapsible=0;recursiveResize=0;expand=0;fontStyle=1;" vertex="1" parent="KtZiofN9k-Ag25ZW_gEH-2">
          <mxGeometry x="40" width="227" height="120" as="geometry">
            <mxRectangle width="227" height="120" as="alternateBounds" />
          </mxGeometry>
        </mxCell>
        <mxCell id="KtZiofN9k-Ag25ZW_gEH-18" value="SESエンジニア派遣" style="text;html=1;align=center;verticalAlign=middle;resizable=0;points=[];autosize=1;strokeColor=none;fillColor=none;fontSize=15;" vertex="1" parent="KtZiofN9k-Ag25ZW_gEH-3">
          <mxGeometry x="33.5" y="70" width="160" height="30" as="geometry" />
        </mxCell>
        <mxCell id="KtZiofN9k-Ag25ZW_gEH-4" value="コスト感" style="swimlane;swimlaneHead=0;swimlaneBody=0;fontStyle=0;connectable=0;fillColor=none;startSize=40;collapsible=0;recursiveResize=0;expand=0;fontStyle=1;" vertex="1" parent="KtZiofN9k-Ag25ZW_gEH-2">
          <mxGeometry x="267" width="226" height="120" as="geometry">
            <mxRectangle width="226" height="120" as="alternateBounds" />
          </mxGeometry>
        </mxCell>
        <mxCell id="KtZiofN9k-Ag25ZW_gEH-21" value="～500万円" style="text;html=1;align=center;verticalAlign=middle;resizable=0;points=[];autosize=1;strokeColor=none;fillColor=none;fontSize=15;" vertex="1" parent="KtZiofN9k-Ag25ZW_gEH-4">
          <mxGeometry x="65" y="70" width="90" height="30" as="geometry" />
        </mxCell>
        <mxCell id="KtZiofN9k-Ag25ZW_gEH-5" value="スピード感" style="swimlane;swimlaneHead=0;swimlaneBody=0;fontStyle=0;connectable=0;fillColor=none;startSize=40;collapsible=0;recursiveResize=0;expand=0;fontStyle=1;" vertex="1" parent="KtZiofN9k-Ag25ZW_gEH-2">
          <mxGeometry x="493" width="227" height="120" as="geometry">
            <mxRectangle width="227" height="120" as="alternateBounds" />
          </mxGeometry>
        </mxCell>
        <mxCell id="KtZiofN9k-Ag25ZW_gEH-24" value="中程度" style="text;html=1;align=center;verticalAlign=middle;resizable=0;points=[];autosize=1;strokeColor=none;fillColor=none;fontSize=15;" vertex="1" parent="KtZiofN9k-Ag25ZW_gEH-5">
          <mxGeometry x="78.5" y="60" width="70" height="30" as="geometry" />
        </mxCell>
        <mxCell id="KtZiofN9k-Ag25ZW_gEH-15" value="完成への責任" style="swimlane;swimlaneHead=0;swimlaneBody=0;fontStyle=0;connectable=0;fillColor=none;startSize=40;collapsible=0;recursiveResize=0;expand=0;fontStyle=1;" vertex="1" parent="KtZiofN9k-Ag25ZW_gEH-2">
          <mxGeometry x="720" width="227" height="120" as="geometry">
            <mxRectangle width="227" height="120" as="alternateBounds" />
          </mxGeometry>
        </mxCell>
        <mxCell id="KtZiofN9k-Ag25ZW_gEH-27" value="会社によって完成に責任をもつ&lt;br&gt;準委任契約も可" style="text;html=1;align=center;verticalAlign=middle;resizable=0;points=[];autosize=1;strokeColor=none;fillColor=none;fontSize=15;" vertex="1" parent="KtZiofN9k-Ag25ZW_gEH-15">
          <mxGeometry x="-1.5" y="50" width="230" height="50" as="geometry" />
        </mxCell>
        <mxCell id="KtZiofN9k-Ag25ZW_gEH-6" value="" style="shape=tableRow;horizontal=0;startSize=40;swimlaneHead=0;swimlaneBody=0;top=0;left=0;bottom=0;right=0;dropTarget=0;fillColor=none;collapsible=0;recursiveResize=0;expand=0;fontStyle=1;" vertex="1" parent="KtZiofN9k-Ag25ZW_gEH-1">
          <mxGeometry y="160" width="947" height="120" as="geometry" />
        </mxCell>
        <mxCell id="KtZiofN9k-Ag25ZW_gEH-7" value="" style="swimlane;swimlaneHead=0;swimlaneBody=0;fontStyle=0;connectable=0;fillColor=none;startSize=0;collapsible=0;recursiveResize=0;expand=0;fontStyle=1;" vertex="1" parent="KtZiofN9k-Ag25ZW_gEH-6">
          <mxGeometry x="40" width="227" height="120" as="geometry">
            <mxRectangle width="227" height="120" as="alternateBounds" />
          </mxGeometry>
        </mxCell>
        <mxCell id="KtZiofN9k-Ag25ZW_gEH-19" value="アジャイル開発" style="text;html=1;align=center;verticalAlign=middle;resizable=0;points=[];autosize=1;strokeColor=none;fillColor=none;fontSize=15;horizontal=1;spacing=6;spacingBottom=1;" vertex="1" parent="KtZiofN9k-Ag25ZW_gEH-7">
          <mxGeometry x="47" y="35" width="140" height="40" as="geometry" />
        </mxCell>
        <mxCell id="KtZiofN9k-Ag25ZW_gEH-8" value="" style="swimlane;swimlaneHead=0;swimlaneBody=0;fontStyle=0;connectable=0;fillColor=none;startSize=0;collapsible=0;recursiveResize=0;expand=0;fontStyle=1;" vertex="1" parent="KtZiofN9k-Ag25ZW_gEH-6">
          <mxGeometry x="267" width="226" height="120" as="geometry">
            <mxRectangle width="226" height="120" as="alternateBounds" />
          </mxGeometry>
        </mxCell>
        <mxCell id="KtZiofN9k-Ag25ZW_gEH-22" value="月額70万円～" style="text;html=1;align=center;verticalAlign=middle;resizable=0;points=[];autosize=1;strokeColor=none;fillColor=none;fontSize=15;" vertex="1" parent="KtZiofN9k-Ag25ZW_gEH-8">
          <mxGeometry x="50" y="45" width="120" height="30" as="geometry" />
        </mxCell>
        <mxCell id="KtZiofN9k-Ag25ZW_gEH-9" value="" style="swimlane;swimlaneHead=0;swimlaneBody=0;fontStyle=0;connectable=0;fillColor=none;startSize=0;collapsible=0;recursiveResize=0;expand=0;fontStyle=1;" vertex="1" parent="KtZiofN9k-Ag25ZW_gEH-6">
          <mxGeometry x="493" width="227" height="120" as="geometry">
            <mxRectangle width="227" height="120" as="alternateBounds" />
          </mxGeometry>
        </mxCell>
        <mxCell id="KtZiofN9k-Ag25ZW_gEH-25" value="早い" style="text;html=1;align=center;verticalAlign=middle;resizable=0;points=[];autosize=1;strokeColor=none;fillColor=none;fontSize=15;" vertex="1" parent="KtZiofN9k-Ag25ZW_gEH-9">
          <mxGeometry x="92" y="45" width="50" height="30" as="geometry" />
        </mxCell>
        <mxCell id="KtZiofN9k-Ag25ZW_gEH-16" style="swimlane;swimlaneHead=0;swimlaneBody=0;fontStyle=0;connectable=0;fillColor=none;startSize=0;collapsible=0;recursiveResize=0;expand=0;fontStyle=1;" vertex="1" parent="KtZiofN9k-Ag25ZW_gEH-6">
          <mxGeometry x="720" width="227" height="120" as="geometry">
            <mxRectangle width="227" height="120" as="alternateBounds" />
          </mxGeometry>
        </mxCell>
        <mxCell id="KtZiofN9k-Ag25ZW_gEH-28" value="完成保証なし" style="text;html=1;align=center;verticalAlign=middle;resizable=0;points=[];autosize=1;strokeColor=none;fillColor=none;fontSize=15;" vertex="1" parent="KtZiofN9k-Ag25ZW_gEH-16">
          <mxGeometry x="58.5" y="45" width="110" height="30" as="geometry" />
        </mxCell>
        <mxCell id="KtZiofN9k-Ag25ZW_gEH-10" value="" style="shape=tableRow;horizontal=0;startSize=40;swimlaneHead=0;swimlaneBody=0;top=0;left=0;bottom=0;right=0;dropTarget=0;fillColor=none;collapsible=0;recursiveResize=0;expand=0;fontStyle=1;" vertex="1" parent="KtZiofN9k-Ag25ZW_gEH-1">
          <mxGeometry y="280" width="947" height="120" as="geometry" />
        </mxCell>
        <mxCell id="KtZiofN9k-Ag25ZW_gEH-11" value="" style="swimlane;swimlaneHead=0;swimlaneBody=0;fontStyle=0;connectable=0;fillColor=none;startSize=0;collapsible=0;recursiveResize=0;expand=0;fontStyle=1;" vertex="1" parent="KtZiofN9k-Ag25ZW_gEH-10">
          <mxGeometry x="40" width="227" height="120" as="geometry">
            <mxRectangle width="227" height="120" as="alternateBounds" />
          </mxGeometry>
        </mxCell>
        <mxCell id="KtZiofN9k-Ag25ZW_gEH-20" value="開発会社（一括請負）" style="text;html=1;align=center;verticalAlign=middle;resizable=0;points=[];autosize=1;strokeColor=none;fillColor=none;fontSize=15;horizontal=1;spacing=6;spacingBottom=1;" vertex="1" parent="KtZiofN9k-Ag25ZW_gEH-11">
          <mxGeometry x="15" y="40" width="180" height="40" as="geometry" />
        </mxCell>
        <mxCell id="KtZiofN9k-Ag25ZW_gEH-12" value="" style="swimlane;swimlaneHead=0;swimlaneBody=0;fontStyle=0;connectable=0;fillColor=none;startSize=0;collapsible=0;recursiveResize=0;expand=0;fontStyle=1;" vertex="1" parent="KtZiofN9k-Ag25ZW_gEH-10">
          <mxGeometry x="267" width="226" height="120" as="geometry">
            <mxRectangle width="226" height="120" as="alternateBounds" />
          </mxGeometry>
        </mxCell>
        <mxCell id="KtZiofN9k-Ag25ZW_gEH-23" value="500万円～" style="text;html=1;align=center;verticalAlign=middle;resizable=0;points=[];autosize=1;strokeColor=none;fillColor=none;fontSize=15;" vertex="1" parent="KtZiofN9k-Ag25ZW_gEH-12">
          <mxGeometry x="68" y="50" width="90" height="30" as="geometry" />
        </mxCell>
        <mxCell id="KtZiofN9k-Ag25ZW_gEH-13" value="" style="swimlane;swimlaneHead=0;swimlaneBody=0;fontStyle=0;connectable=0;fillColor=none;startSize=0;collapsible=0;recursiveResize=0;expand=0;fontStyle=1;" vertex="1" parent="KtZiofN9k-Ag25ZW_gEH-10">
          <mxGeometry x="493" width="227" height="120" as="geometry">
            <mxRectangle width="227" height="120" as="alternateBounds" />
          </mxGeometry>
        </mxCell>
        <mxCell id="KtZiofN9k-Ag25ZW_gEH-26" value="中程度" style="text;html=1;align=center;verticalAlign=middle;resizable=0;points=[];autosize=1;strokeColor=none;fillColor=none;fontSize=15;" vertex="1" parent="KtZiofN9k-Ag25ZW_gEH-13">
          <mxGeometry x="78.5" y="45" width="70" height="30" as="geometry" />
        </mxCell>
        <mxCell id="KtZiofN9k-Ag25ZW_gEH-17" style="swimlane;swimlaneHead=0;swimlaneBody=0;fontStyle=0;connectable=0;fillColor=none;startSize=0;collapsible=0;recursiveResize=0;expand=0;fontStyle=1;" vertex="1" parent="KtZiofN9k-Ag25ZW_gEH-10">
          <mxGeometry x="720" width="227" height="120" as="geometry">
            <mxRectangle width="227" height="120" as="alternateBounds" />
          </mxGeometry>
        </mxCell>
        <mxCell id="KtZiofN9k-Ag25ZW_gEH-29" value="指定要件ができたら終了" style="text;html=1;align=center;verticalAlign=middle;resizable=0;points=[];autosize=1;strokeColor=none;fillColor=none;fontSize=15;" vertex="1" parent="KtZiofN9k-Ag25ZW_gEH-17">
          <mxGeometry x="18.5" y="40" width="190" height="30" as="geometry" />
        </mxCell>
      </root>
    </mxGraphModel>
  </diagram>
</mxfile>
